<?xml version="1.0" standalone="no"?>
<!DOCTYPE svg PUBLIC "-//W3C//DTD SVG 20010904//EN"
 "http://www.w3.org/TR/2001/REC-SVG-20010904/DTD/svg10.dtd">
<svg version="1.0" xmlns="http://www.w3.org/2000/svg"
 width="896.000000pt" height="896.000000pt" viewBox="0 0 896.000000 896.000000"
 preserveAspectRatio="xMidYMid meet">
<metadata>
Created by potrace 1.14, written by Peter Selinger 2001-2017
</metadata>
<g transform="translate(0.000000,896.000000) scale(0.100000,-0.100000)"
fill="#000000" stroke="none">
<path d="M5696 7443 c-1 -2 -54 -5 -117 -8 -63 -3 -139 -7 -169 -10 -30 -2
-86 -7 -125 -10 -38 -3 -86 -8 -105 -10 -19 -2 -57 -7 -85 -11 -27 -4 -61 -8
-75 -9 -14 -2 -41 -6 -60 -9 -19 -4 -60 -11 -90 -16 -30 -6 -64 -12 -75 -15
-202 -48 -261 -73 -280 -118 -7 -18 -11 -36 -8 -41 3 -4 7 -59 8 -120 l3 -111
-34 -23 c-34 -22 -55 -27 -67 -15 -4 3 -31 15 -59 25 -221 78 -400 84 -534 17
-56 -29 -144 -116 -144 -145 0 -7 -4 -14 -8 -14 -7 0 -39 -95 -51 -150 -12
-58 -3 -346 13 -396 11 -38 13 -37 -254 -105 -63 -16 -131 -32 -150 -35 -19
-3 -43 -7 -52 -10 -23 -7 -46 -11 -103 -18 -27 -4 -57 -9 -65 -11 -8 -2 -37
-6 -65 -10 -27 -3 -61 -8 -75 -10 -14 -3 -56 -8 -95 -11 -38 -3 -101 -8 -140
-11 -140 -12 -655 -7 -655 7 0 3 -17 5 -37 5 l-38 0 -2 295 c-3 360 -2 336
-23 385 -38 88 -129 161 -250 201 -82 27 -332 26 -422 -2 -9 -3 -26 -7 -38 -9
-75 -14 -359 -130 -380 -154 -3 -3 -21 -15 -40 -25 -19 -11 -53 -31 -75 -45
-45 -28 -142 -81 -150 -81 -3 0 -10 -3 -17 -5 -135 -48 -328 -5 -436 96 -51
48 -53 44 -54 -86 0 -45 12 -218 17 -235 3 -8 7 -31 9 -50 3 -19 10 -57 16
-85 6 -27 13 -57 15 -65 27 -127 134 -328 212 -397 20 -18 24 -29 20 -55 -8
-55 -17 -91 -34 -143 -10 -27 -18 -52 -18 -55 -1 -3 -7 -18 -13 -33 -36 -87
-59 -136 -79 -172 -12 -22 -27 -49 -32 -61 -5 -11 -32 -50 -59 -87 l-51 -66
29 -31 c15 -16 33 -30 39 -30 6 0 11 -4 11 -9 0 -12 138 -80 177 -87 84 -17
181 -8 263 24 14 5 30 11 35 12 6 2 35 19 65 40 79 53 178 109 183 104 2 -2
10 2 17 11 7 8 21 15 31 15 11 0 19 5 19 10 0 6 6 10 13 10 9 0 12 -39 11
-167 -1 -93 3 -185 9 -206 29 -104 229 -239 442 -297 22 -6 65 -18 95 -26 71
-20 184 -44 235 -50 22 -3 47 -8 55 -10 8 -3 38 -7 65 -10 28 -2 68 -7 90 -9
97 -13 235 -18 440 -19 228 0 339 6 520 29 33 4 71 9 85 10 36 5 89 13 130 20
19 3 49 8 65 11 17 3 37 7 45 9 8 2 31 7 50 10 94 16 435 111 510 142 8 3 17
7 20 7 31 6 284 115 387 167 l132 67 77 -90 c203 -237 418 -420 672 -571 192
-113 297 -160 350 -154 23 2 42 1 42 -3 0 -5 27 -37 60 -72 33 -35 60 -66 60
-69 0 -7 72 -86 211 -233 l77 -80 -19 -25 c-45 -62 -25 -162 40 -206 47 -31
92 -137 106 -250 3 -16 8 -50 13 -75 12 -69 5 -336 -13 -481 -3 -19 -7 -52
-10 -74 -3 -22 -7 -49 -9 -60 -2 -11 -7 -39 -11 -61 -3 -23 -14 -50 -23 -60
-39 -43 -54 -76 -48 -107 5 -22 1 -34 -15 -47 -22 -20 -27 -43 -15 -76 6 -19
2 -23 -28 -28 -19 -4 -37 -13 -40 -21 -3 -8 -10 -15 -16 -15 -10 0 -84 -57
-128 -98 -35 -32 -102 -71 -152 -87 -30 -10 -59 -25 -64 -34 -5 -8 -11 -46
-12 -82 l-3 -67 52 -25 c60 -29 208 -73 282 -83 28 -3 61 -8 75 -10 176 -26
570 -20 720 11 14 3 41 8 60 11 30 4 53 10 115 28 6 2 12 4 15 4 3 1 31 13 64
27 70 31 91 49 81 73 -5 9 -9 35 -10 57 -2 58 -12 73 -59 86 -53 14 -87 32
-143 75 -52 40 -136 106 -143 114 -16 17 -62 40 -79 40 -18 0 -19 3 -9 30 8
24 7 35 -6 55 -9 14 -20 25 -25 25 -5 0 -6 20 -4 44 4 35 1 48 -15 64 -45 45
-68 113 -77 232 -2 19 -5 49 -8 65 -8 43 -20 258 -20 340 1 101 23 271 39 297
3 5 7 19 10 32 9 49 34 92 79 134 25 24 50 54 55 68 16 41 11 97 -10 124 -11
14 -20 28 -20 33 0 7 56 68 173 189 20 21 37 41 37 45 0 3 10 15 23 27 13 11
50 52 83 91 103 122 99 118 121 107 11 -6 25 -7 33 -2 8 5 17 7 21 4 17 -10
410 207 457 253 7 7 17 13 22 13 5 0 15 6 22 13 7 6 56 46 108 89 74 59 108
80 155 93 33 9 87 26 120 37 33 11 65 21 70 23 27 6 277 116 285 124 3 4 23
15 45 26 22 11 48 27 59 35 10 8 19 14 20 12 1 -3 13 1 84 29 38 15 60 20 117
25 28 2 55 6 60 8 9 3 106 -8 150 -18 65 -14 140 -50 217 -104 26 -17 49 -32
53 -32 6 0 -2 267 -10 315 -3 17 -7 44 -10 60 -13 85 -59 248 -76 271 -5 6 -6
14 -2 17 3 4 1 7 -5 7 -7 0 -12 7 -12 15 0 30 -87 160 -152 227 -38 39 -68 78
-68 88 0 35 52 184 95 275 52 108 108 197 182 287 51 63 54 69 38 84 -51 51
-172 111 -282 140 -9 2 -13 25 -14 66 -2 92 -7 125 -29 199 -20 68 -76 163
-110 186 -11 8 -25 19 -32 27 -43 43 -142 69 -258 69 -52 0 -106 -3 -120 -6
-53 -11 -118 -29 -202 -58 l-88 -29 -32 21 -33 21 1 92 c1 50 4 110 8 132 10
56 -18 87 -107 119 -37 13 -68 24 -70 23 -1 0 -22 5 -47 12 -25 7 -54 14 -65
16 -11 2 -31 6 -45 9 -14 3 -41 8 -60 11 -19 3 -46 8 -60 10 -14 3 -38 7 -55
9 -16 2 -50 6 -75 9 -25 3 -58 7 -75 10 -16 2 -66 7 -110 10 -44 4 -100 9
-125 12 -123 12 -1133 28 -1144 17z m-1545 -668 c100 -20 287 -97 337 -137 9
-8 9 -14 1 -24 -6 -8 -15 -14 -20 -14 -4 0 -34 -15 -66 -34 -121 -71 -171 -98
-263 -142 -52 -25 -103 -50 -113 -55 -9 -5 -67 -30 -129 -55 -114 -46 -126
-46 -129 -4 0 8 -3 38 -5 65 -16 202 21 312 128 378 52 32 164 42 259 22z
m4169 -9 c70 -34 80 -41 86 -58 3 -10 9 -18 14 -18 14 0 50 -108 55 -162 2
-27 7 -53 10 -58 4 -6 -2 -11 -12 -11 -45 -3 -73 -9 -91 -18 -11 -6 -22 -8
-24 -6 -3 3 -89 -37 -191 -89 -103 -52 -187 -92 -187 -89 0 3 -6 1 -12 -4 -15
-12 -160 -67 -198 -76 l-25 -6 1 192 c1 106 -2 206 -6 224 -6 24 -4 35 8 47
16 13 135 76 147 77 2 0 22 7 42 16 132 57 308 75 383 39z m-3492 -1703 c11
-27 23 -59 27 -73 26 -86 281 -567 307 -578 4 -2 8 -8 8 -13 0 -5 13 -28 30
-50 48 -67 21 -78 -69 -27 -57 32 -69 40 -156 98 -51 34 -151 107 -171 125
-46 41 -75 65 -78 65 -9 0 -207 202 -257 262 l-51 62 48 25 c60 30 327 151
335 151 4 0 16 -21 27 -47z m2460 -607 c12 0 22 -1 22 -3 0 -6 -181 -122 -224
-144 -25 -12 -52 -19 -61 -15 -15 5 -14 10 9 40 14 19 26 39 26 43 0 5 8 18
19 29 10 11 23 30 30 42 11 20 17 21 84 15 39 -3 82 -6 95 -7z"/>
</g>
</svg>
